# xmcd
#
# Track frame offsets:
#	150
#	13754
#	31120
#	45716
#	58541
#	71985
#	91261
#	106641
#	125580
#	135941
#	148200
#	164036
#	182676
#	196754
#	208733
#
# Disc length: 3031 seconds
#
# Revision: 1
# Processed by: cddbd v1.5.2PL0 Copyright (c) Steve Scherf et al.
# Submitted via: audiograbber 1.83.01
#
DISCID=d40bd50f
DTITLE=Wyane and Millie Lauritsen -  Back Home Again
DYEAR=2004
DGENRE=Country
TTITLE0=Sing Me Back Home
TTITLE1=One Empty Cot in the Bunkhouse
TTITLE2=Remember Me
TTITLE3=Keep On The Sunny Side of Life
TTITLE4=Your Old Love Letters
TTITLE5=Wagon Tongue
TTITLE6=Metamucil
TTITLE7=Fallen Leaves
TTITLE8=Little Green Valley
TTITLE9=Till I'm Too Old To Die Young
TTITLE10=I Saw The Master (This Morning)
TTITLE11=Red River Valley
TTITLE12=I'm A Stranger Here
TTITLE13=Papa Played The Dobro
TTITLE14=Life's Railway To Heaven
EXTD=
EXTT0=
EXTT1=
EXTT2=
EXTT3=
EXTT4=
EXTT5=
EXTT6=
EXTT7=
EXTT8=
EXTT9=
EXTT10=
EXTT11=
EXTT12=
EXTT13=
EXTT14=
PLAYORDER=
